<?xml version="1.0" encoding="UTF-8" standalone="no"?>
<!DOCTYPE svg PUBLIC "-//W3C//DTD SVG 1.1//EN" "http://www.w3.org/Graphics/SVG/1.1/DTD/svg11.dtd">
<svg width="100%" height="100%" viewBox="0 0 665 163" version="1.1" xmlns="http://www.w3.org/2000/svg" xmlns:xlink="http://www.w3.org/1999/xlink" xml:space="preserve" xmlns:serif="http://www.serif.com/" style="fill-rule:evenodd;clip-rule:evenodd;stroke-linejoin:round;stroke-miterlimit:2;">
    <g transform="matrix(1,0,0,1,-1166.39,5215.99)">
        <g transform="matrix(0.52812,0,0,0.52812,862.985,-4868.49)">
            <g transform="matrix(213.253,0,0,213.253,1839.97,-442.983)">
            </g>
            <text x="886.301px" y="-442.983px" style="font-family:'HaasGrotTextWeb-65Medium', 'Haas Grot Text Web', sans-serif;font-weight:500;font-size:213.253px;">a<tspan x="992.075px 1147.32px 1259.71px 1372.52px 1481.06px 1597.5px 1714.79px " y="-442.983px -442.983px -442.983px -442.983px -442.983px -442.983px -442.983px ">wencode</tspan></text>
        </g>
        <g transform="matrix(0.494773,0,0,0.494773,1237.31,-5134.74)">
            <g transform="matrix(1,0,0,1,-143.35,-164.219)">
                <clipPath id="_clip1">
                    <rect x="0" y="0" width="286.7" height="328.438"/>
                </clipPath>
                <g clip-path="url(#_clip1)">
                    <g id="Academic_x5F_Aye_x5F_Computer" transform="matrix(4.16667,0,0,4.16667,0,0)">
                        <g transform="matrix(0.24,0,0,0.24,0,0)">
                            <path d="M0,269.297L153.448,0.001L153.448,58.592L0,328.438L0,269.297Z"/>
                        </g>
                        <g transform="matrix(0.24,0,0,0.24,12.8741,-0.413873)">
                            <path d="M0,269.297L125.295,49.745L125.295,108.336L0,328.438L0,269.297Z"/>
                        </g>
                        <g transform="matrix(0.24,0,0,0.24,25.0212,-0.413873)">
                            <path d="M0,269.297L103.103,91.998L103.103,150.589L0,328.438L0,269.297Z"/>
                        </g>
                        <g transform="matrix(0.24,0,0,0.24,37.5913,-0.149)">
                            <path d="M0,269.297L76.341,138.89L76.341,197.481L0,328.438L0,269.297Z"/>
                        </g>
                        <g transform="matrix(0.24,0,0,0.24,49.8841,-0.088367)">
                            <path d="M0,269.297L50.735,181.761L50.735,240.351L0,328.438L0,269.297Z"/>
                        </g>
                        <g transform="matrix(0.24,0,0,0.24,62.7263,0.0461002)">
                            <path d="M0,269.297L25.334,226.552L25.334,285.142L0,328.438L0,269.297Z"/>
                        </g>
                    </g>
                </g>
            </g>
        </g>
    </g>
</svg>
