<?xml version="1.0" encoding="UTF-8" standalone="no"?>
<!DOCTYPE svg PUBLIC "-//W3C//DTD SVG 1.1//EN" "http://www.w3.org/Graphics/SVG/1.1/DTD/svg11.dtd">
<svg width="100%" height="100%" viewBox="0 0 22 21" version="1.1" xmlns="http://www.w3.org/2000/svg" xmlns:xlink="http://www.w3.org/1999/xlink" xml:space="preserve" xmlns:serif="http://www.serif.com/" style="fill-rule:evenodd;clip-rule:evenodd;stroke-linejoin:round;stroke-miterlimit:2;">
    <g transform="matrix(1,0,0,1,-493.132,-487.2)">
        <g transform="matrix(1,0,0,1,486.714,488.486)">
            <g transform="matrix(1,0,0,1,6.41805,-1.28552)">
                <rect x="0" y="0" width="21.26" height="20.889" style="fill-opacity:0;"/>
                <path d="M9.463,20.879L11.436,20.879C12.188,20.879 12.773,20.42 12.94,19.697L13.359,17.871L13.672,17.764L15.264,18.74C15.898,19.131 16.631,19.043 17.168,18.506L18.535,17.148C19.072,16.611 19.16,15.869 18.77,15.244L17.773,13.662L17.891,13.369L19.717,12.94C20.43,12.773 20.898,12.178 20.898,11.436L20.898,9.502C20.898,8.76 20.44,8.174 19.717,7.998L17.91,7.559L17.783,7.246L18.779,5.664C19.17,5.039 19.092,4.307 18.545,3.76L17.178,2.393C16.65,1.865 15.918,1.768 15.283,2.158L13.691,3.135L13.359,3.008L12.94,1.182C12.773,0.459 12.188,0 11.436,0L9.463,0C8.711,0 8.125,0.459 7.959,1.182L7.529,3.008L7.197,3.135L5.615,2.158C4.98,1.768 4.238,1.865 3.711,2.393L2.354,3.76C1.807,4.307 1.719,5.039 2.119,5.664L3.105,7.246L2.988,7.559L1.182,7.998C0.459,8.174 0,8.76 0,9.502L0,11.436C0,12.178 0.469,12.773 1.182,12.94L3.008,13.369L3.115,13.662L2.129,15.244C1.729,15.869 1.826,16.611 2.363,17.148L3.721,18.506C4.258,19.043 5,19.131 5.635,18.74L7.217,17.764L7.529,17.871L7.959,19.697C8.125,20.42 8.711,20.879 9.463,20.879ZM9.619,19.356C9.453,19.356 9.365,19.287 9.336,19.131L8.75,16.709C8.154,16.563 7.598,16.328 7.178,16.064L5.049,17.373C4.932,17.461 4.795,17.451 4.688,17.324L3.535,16.172C3.428,16.064 3.418,15.947 3.496,15.81L4.805,13.701C4.58,13.291 4.326,12.734 4.17,12.139L1.748,11.563C1.592,11.533 1.523,11.445 1.523,11.279L1.523,9.648C1.523,9.473 1.582,9.395 1.748,9.365L4.16,8.779C4.316,8.145 4.609,7.568 4.785,7.207L3.486,5.098C3.398,4.951 3.408,4.834 3.516,4.717L4.678,3.584C4.795,3.467 4.902,3.457 5.049,3.535L7.158,4.814C7.578,4.58 8.174,4.336 8.76,4.17L9.336,1.748C9.365,1.592 9.453,1.523 9.619,1.523L11.279,1.523C11.445,1.523 11.533,1.592 11.553,1.748L12.148,4.189C12.754,4.346 13.281,4.59 13.721,4.824L15.84,3.535C15.996,3.457 16.094,3.467 16.221,3.584L17.373,4.717C17.49,4.834 17.49,4.951 17.402,5.098L16.104,7.207C16.289,7.568 16.572,8.145 16.729,8.779L19.15,9.365C19.307,9.395 19.375,9.473 19.375,9.648L19.375,11.279C19.375,11.445 19.297,11.533 19.15,11.563L16.719,12.139C16.563,12.734 16.318,13.291 16.084,13.701L17.393,15.81C17.471,15.947 17.471,16.064 17.354,16.172L16.211,17.324C16.094,17.451 15.967,17.461 15.84,17.373L13.711,16.064C13.291,16.328 12.744,16.563 12.148,16.709L11.553,19.131C11.533,19.287 11.445,19.356 11.279,19.356L9.619,19.356ZM10.449,14.16C12.51,14.16 14.17,12.5 14.17,10.44C14.17,8.379 12.51,6.719 10.449,6.719C8.389,6.719 6.729,8.379 6.729,10.44C6.729,12.5 8.389,14.16 10.449,14.16ZM10.449,12.647C9.229,12.647 8.242,11.66 8.242,10.44C8.242,9.219 9.229,8.232 10.449,8.232C11.67,8.232 12.656,9.219 12.656,10.44C12.656,11.66 11.67,12.647 10.449,12.647Z" style="fill-opacity:0.85;fill-rule:nonzero;"/>
            </g>
        </g>
    </g>
</svg>
