<?xml version="1.0" encoding="UTF-8" standalone="no"?>
<!DOCTYPE svg PUBLIC "-//W3C//DTD SVG 1.1//EN" "http://www.w3.org/Graphics/SVG/1.1/DTD/svg11.dtd">
<svg width="100%" height="100%" viewBox="0 0 24 21" version="1.1" xmlns="http://www.w3.org/2000/svg" xmlns:xlink="http://www.w3.org/1999/xlink" xml:space="preserve" xmlns:serif="http://www.serif.com/" style="fill-rule:evenodd;clip-rule:evenodd;stroke-linejoin:round;stroke-miterlimit:2;">
    <g transform="matrix(1,0,0,1,-486.714,-488.486)">
        <g transform="matrix(1,0,0,1,486.714,489.605)">
            <g transform="matrix(1,0,0,1,0,-1.11947)">
                <rect x="0" y="0" width="23.682" height="20.557" style="fill-opacity:0;"/>
                <path d="M9.023,18.965L9.023,13.223C9.023,12.773 9.326,12.48 9.775,12.48L13.555,12.48C14.014,12.48 14.297,12.773 14.297,13.223L14.297,18.965L9.023,18.965ZM3.047,18.389C3.047,19.746 3.867,20.537 5.244,20.537L18.086,20.537C19.463,20.537 20.273,19.746 20.273,18.389L20.273,10.635L12.246,3.906C11.875,3.594 11.436,3.604 11.074,3.906L3.047,10.635L3.047,18.389ZM0.84,10.43C1.113,10.43 1.338,10.283 1.543,10.117L11.318,1.904C11.426,1.816 11.553,1.768 11.66,1.768C11.777,1.768 11.895,1.816 12.002,1.904L21.787,10.117C21.982,10.283 22.207,10.43 22.481,10.43C23.008,10.43 23.32,10.049 23.32,9.648C23.32,9.424 23.232,9.189 23.008,9.014L12.832,0.469C12.461,0.156 12.06,0 11.66,0C11.26,0 10.859,0.156 10.488,0.469L0.313,9.014C0.098,9.189 0,9.424 0,9.648C0,10.049 0.313,10.43 0.84,10.43ZM18.018,5.244L20.469,7.314L20.469,2.91C20.469,2.48 20.195,2.207 19.766,2.207L18.721,2.207C18.301,2.207 18.018,2.48 18.018,2.91L18.018,5.244Z" style="fill-opacity:0.85;fill-rule:nonzero;"/>
            </g>
        </g>
    </g>
</svg>
