<?xml version="1.0" encoding="UTF-8" standalone="no"?>
<!DOCTYPE svg PUBLIC "-//W3C//DTD SVG 1.1//EN" "http://www.w3.org/Graphics/SVG/1.1/DTD/svg11.dtd">
<svg width="100%" height="100%" viewBox="0 0 24 21" version="1.1" xmlns="http://www.w3.org/2000/svg" xmlns:xlink="http://www.w3.org/1999/xlink" xml:space="preserve" xmlns:serif="http://www.serif.com/" style="fill-rule:evenodd;clip-rule:evenodd;stroke-linejoin:round;stroke-miterlimit:2;">
    <g transform="matrix(1,0,0,1,-486.714,-489.605)">
        <g transform="matrix(1,0,0,1,486.714,489.605)">
            <path d="M8.828,19.531L14.492,19.531L14.492,13.223C14.492,12.773 14.199,12.48 13.75,12.48L9.58,12.48C9.131,12.48 8.828,12.773 8.828,13.223L8.828,19.531ZM0.84,10.43C1.113,10.43 1.338,10.283 1.543,10.117L11.318,1.904C11.426,1.816 11.553,1.768 11.66,1.768C11.777,1.768 11.895,1.816 12.002,1.904L21.787,10.117C21.982,10.283 22.207,10.43 22.481,10.43C23.008,10.43 23.32,10.049 23.32,9.648C23.32,9.424 23.232,9.189 23.008,9.014L12.832,0.469C12.461,0.156 12.06,0 11.66,0C11.26,0 10.859,0.156 10.488,0.469L0.313,9.014C0.098,9.189 0,9.424 0,9.648C0,10.049 0.313,10.43 0.84,10.43ZM18.018,5.244L20.469,7.314L20.469,2.91C20.469,2.48 20.195,2.207 19.766,2.207L18.721,2.207C18.301,2.207 18.018,2.48 18.018,2.91L18.018,5.244ZM5.059,20.537L18.272,20.537C19.658,20.537 20.469,19.746 20.469,18.379L20.469,7.559L18.897,6.494L18.897,17.988C18.897,18.623 18.555,18.965 17.94,18.965L5.391,18.965C4.766,18.965 4.424,18.623 4.424,17.988L4.424,6.504L2.852,7.559L2.852,18.379C2.852,19.756 3.662,20.537 5.059,20.537Z" style="fill-opacity:0.85;fill-rule:nonzero;"/>
        </g>
    </g>
</svg>
