<?xml version="1.0" encoding="UTF-8" standalone="no"?>
<!DOCTYPE svg PUBLIC "-//W3C//DTD SVG 1.1//EN" "http://www.w3.org/Graphics/SVG/1.1/DTD/svg11.dtd">
<svg width="100%" height="100%" viewBox="0 0 233 234" version="1.1" xmlns="http://www.w3.org/2000/svg" xmlns:xlink="http://www.w3.org/1999/xlink" xml:space="preserve" xmlns:serif="http://www.serif.com/" style="fill-rule:evenodd;clip-rule:evenodd;stroke-linecap:round;stroke-linejoin:round;stroke-miterlimit:1.5;">
    <g transform="matrix(1,0,0,1,-4883.78,4949.75)">
        <g transform="matrix(0.836706,0,0,0.836706,1338.84,-800.041)">
            <path d="M4500.78,-4834.64L4500.78,-4756.99C4500.78,-4722.46 4472.74,-4694.42 4438.21,-4694.42L4313.05,-4694.42C4278.51,-4694.42 4250.47,-4722.46 4250.47,-4756.99L4250.47,-4882.15C4250.47,-4916.69 4278.51,-4944.73 4313.05,-4944.73L4375.63,-4944.73" style="fill:none;stroke:black;stroke-width:27.39px;"/>
        </g>
        <g transform="matrix(1,0,0,1,614.867,-10.5621)">
            <path d="M4342.25,-4780.33C4342.25,-4780.33 4386.27,-4787.52 4396.36,-4795.68C4420.09,-4814.86 4470.82,-4866.59 4489.81,-4889.99C4497.53,-4899.51 4489.81,-4926.76 4489.81,-4926.76C4489.81,-4926.76 4459.46,-4935.97 4449.84,-4926.76C4428.57,-4906.41 4377.51,-4856.98 4356.15,-4834.65C4347.73,-4825.85 4342.25,-4780.33 4342.25,-4780.33Z" style="fill:none;stroke:black;stroke-width:16.67px;"/>
        </g>
    </g>
</svg>
