<?xml version="1.0" encoding="UTF-8" standalone="no"?>
<!DOCTYPE svg PUBLIC "-//W3C//DTD SVG 1.1//EN" "http://www.w3.org/Graphics/SVG/1.1/DTD/svg11.dtd">
<svg width="100%" height="100%" viewBox="0 0 287 329" version="1.1" xmlns="http://www.w3.org/2000/svg" xmlns:xlink="http://www.w3.org/1999/xlink" xml:space="preserve" xmlns:serif="http://www.serif.com/" style="fill-rule:evenodd;clip-rule:evenodd;stroke-linejoin:round;stroke-miterlimit:2;">
    <g transform="matrix(1,0,0,1,-5593.19,5680.59)">
        <g transform="matrix(1,0,0,1,-64.7137,-26.1554)">
            <g transform="matrix(1,0,0,1,5657.9,-5654.43)">
                <path d="M0,269.297L153.448,0.001L153.448,58.592L0,328.438L0,269.297ZM1.042,269.573L1.042,324.498L152.406,58.316L152.406,3.933L1.042,269.573Z"/>
            </g>
            <g transform="matrix(1,0,0,1,5711.54,-5656.16)">
                <path d="M0,269.297L125.295,49.745L125.295,108.336L0,328.438L0,269.297ZM1.042,269.573L1.042,324.502L124.253,108.06L124.253,53.672L1.042,269.573Z"/>
            </g>
            <g transform="matrix(1,0,0,1,5762.15,-5656.16)">
                <path d="M0,269.297L103.103,91.998L103.103,150.589L0,328.438L0,269.297ZM1.042,269.578L1.042,324.564L102.061,150.309L102.061,95.862L1.042,269.578Z"/>
            </g>
            <g transform="matrix(1,0,0,1,5814.53,-5655.05)">
                <path d="M0,269.297L76.341,138.89L76.341,197.481L0,328.438L0,269.297ZM1.042,269.579L1.042,324.582L75.3,197.199L75.3,142.731L1.042,269.579Z"/>
            </g>
            <g transform="matrix(1,0,0,1,5865.75,-5654.8)">
                <path d="M0,269.297L50.735,181.761L50.735,240.351L0,328.438L0,269.297ZM1.042,269.577L1.042,324.542L49.694,240.073L49.694,185.635L1.042,269.577Z"/>
            </g>
            <g transform="matrix(1,0,0,1,5919.26,-5654.24)">
                <path d="M0,269.297L25.334,226.552L25.334,285.142L0,328.438L0,269.297ZM1.042,269.582L1.042,324.595L24.292,284.86L24.292,230.352L1.042,269.582Z"/>
            </g>
        </g>
    </g>
</svg>
